<?xml version="1.0" ?>
<mxfile host="app.diagrams.net" modified="2025-08-29T00:00:00.000Z" agent="python-script" version="22.0.0" type="device">
  <diagram id="flow1" name="Flowchart">
    <mxGraphModel dx="1294" dy="768" grid="1" gridSize="10" guides="1" tooltips="1" connect="1" arrows="1" fold="1" page="1" pageScale="1" pageWidth="850" pageHeight="1100" math="0" shadow="0">
      <root>
        <mxCell id="0"/>
        <mxCell id="1" parent="0"/>
        <mxCell id="10" value="Start" style="shape=ellipse;whiteSpace=wrap;html=1;" vertex="1" parent="1">
          <mxGeometry x="340" y="40" width="220" height="50" as="geometry"/>
        </mxCell>
        <mxCell id="11" value="Fill Registration Form" style="rounded=1;whiteSpace=wrap;html=1;" vertex="1" parent="1">
          <mxGeometry x="340" y="120" width="220" height="50" as="geometry"/>
        </mxCell>
        <mxCell id="12" value="Enter First Name" style="shape=parallelogram;whiteSpace=wrap;html=1;" vertex="1" parent="1">
          <mxGeometry x="340" y="200" width="220" height="50" as="geometry"/>
        </mxCell>
        <mxCell id="13" value="Enter Last Name" style="shape=parallelogram;whiteSpace=wrap;html=1;" vertex="1" parent="1">
          <mxGeometry x="340" y="280" width="220" height="50" as="geometry"/>
        </mxCell>
        <mxCell id="14" value="Enter Email" style="shape=parallelogram;whiteSpace=wrap;html=1;" vertex="1" parent="1">
          <mxGeometry x="340" y="360" width="220" height="50" as="geometry"/>
        </mxCell>
        <mxCell id="15" value="Enter Password" style="shape=parallelogram;whiteSpace=wrap;html=1;" vertex="1" parent="1">
          <mxGeometry x="340" y="440" width="220" height="50" as="geometry"/>
        </mxCell>
        <mxCell id="16" value="Enter Phone Number" style="shape=parallelogram;whiteSpace=wrap;html=1;" vertex="1" parent="1">
          <mxGeometry x="340" y="520" width="220" height="50" as="geometry"/>
        </mxCell>
        <mxCell id="17" value="Select Gender" style="shape=rhombus;whiteSpace=wrap;html=1;" vertex="1" parent="1">
          <mxGeometry x="340" y="600" width="220" height="50" as="geometry"/>
        </mxCell>
        <mxCell id="18" value="Enter Age" style="shape=parallelogram;whiteSpace=wrap;html=1;" vertex="1" parent="1">
          <mxGeometry x="340" y="680" width="220" height="50" as="geometry"/>
        </mxCell>
        <mxCell id="19" value="Select Country" style="shape=rhombus;whiteSpace=wrap;html=1;" vertex="1" parent="1">
          <mxGeometry x="340" y="760" width="220" height="50" as="geometry"/>
        </mxCell>
        <mxCell id="20" value="Select Preferences" style="rounded=1;whiteSpace=wrap;html=1;" vertex="1" parent="1">
          <mxGeometry x="340" y="840" width="220" height="50" as="geometry"/>
        </mxCell>
        <mxCell id="21" value="Select Occupation" style="rounded=1;whiteSpace=wrap;html=1;" vertex="1" parent="1">
          <mxGeometry x="340" y="920" width="220" height="50" as="geometry"/>
        </mxCell>
        <mxCell id="22" value="Upload File" style="shape=parallelogram;whiteSpace=wrap;html=1;" vertex="1" parent="1">
          <mxGeometry x="340" y="1000" width="220" height="50" as="geometry"/>
        </mxCell>
        <mxCell id="23" value="Submit Form" style="shape=ellipse;whiteSpace=wrap;html=1;" vertex="1" parent="1">
          <mxGeometry x="340" y="1080" width="220" height="50" as="geometry"/>
        </mxCell>
        <mxCell id="100" style="endArrow=block;endFill=1;rounded=0;html=1;" edge="1" parent="1" source="10" target="11">
          <mxGeometry relative="1" as="geometry"/>
        </mxCell>
        <mxCell id="101" style="endArrow=block;endFill=1;rounded=0;html=1;" edge="1" parent="1" source="11" target="12">
          <mxGeometry relative="1" as="geometry"/>
        </mxCell>
        <mxCell id="102" style="endArrow=block;endFill=1;rounded=0;html=1;" edge="1" parent="1" source="12" target="13">
          <mxGeometry relative="1" as="geometry"/>
        </mxCell>
        <mxCell id="103" style="endArrow=block;endFill=1;rounded=0;html=1;" edge="1" parent="1" source="13" target="14">
          <mxGeometry relative="1" as="geometry"/>
        </mxCell>
        <mxCell id="104" style="endArrow=block;endFill=1;rounded=0;html=1;" edge="1" parent="1" source="14" target="15">
          <mxGeometry relative="1" as="geometry"/>
        </mxCell>
        <mxCell id="105" style="endArrow=block;endFill=1;rounded=0;html=1;" edge="1" parent="1" source="15" target="16">
          <mxGeometry relative="1" as="geometry"/>
        </mxCell>
        <mxCell id="106" style="endArrow=block;endFill=1;rounded=0;html=1;" edge="1" parent="1" source="16" target="17">
          <mxGeometry relative="1" as="geometry"/>
        </mxCell>
        <mxCell id="107" style="endArrow=block;endFill=1;rounded=0;html=1;" edge="1" parent="1" source="17" target="18">
          <mxGeometry relative="1" as="geometry"/>
        </mxCell>
        <mxCell id="108" style="endArrow=block;endFill=1;rounded=0;html=1;" edge="1" parent="1" source="18" target="19">
          <mxGeometry relative="1" as="geometry"/>
        </mxCell>
        <mxCell id="109" style="endArrow=block;endFill=1;rounded=0;html=1;" edge="1" parent="1" source="19" target="20">
          <mxGeometry relative="1" as="geometry"/>
        </mxCell>
        <mxCell id="110" style="endArrow=block;endFill=1;rounded=0;html=1;" edge="1" parent="1" source="20" target="21">
          <mxGeometry relative="1" as="geometry"/>
        </mxCell>
        <mxCell id="111" style="endArrow=block;endFill=1;rounded=0;html=1;" edge="1" parent="1" source="21" target="22">
          <mxGeometry relative="1" as="geometry"/>
        </mxCell>
        <mxCell id="112" style="endArrow=block;endFill=1;rounded=0;html=1;" edge="1" parent="1" source="22" target="23">
          <mxGeometry relative="1" as="geometry"/>
        </mxCell>
      </root>
    </mxGraphModel>
  </diagram>
</mxfile>
